HIERARCHY
ROOT Hips
{
	OFFSET 0.00000 0.00000 0.00000
	CHANNELS 6 Xposition Yposition Zposition Zrotation Yrotation Xrotation 
	JOINT LHipJoint
	{
		OFFSET 0 0 0
		CHANNELS 3 Zrotation Yrotation Xrotation
		JOINT LeftHip
		{
			OFFSET 1.37733 -1.58235 0.71371
			CHANNELS 3 Zrotation Yrotation Xrotation
			JOINT LeftKnee
			{
				OFFSET 2.33951 -6.42775 0.00000
				CHANNELS 3 Zrotation Yrotation Xrotation
				JOINT LeftAnkle
				{
					OFFSET 2.30523 -6.33358 0.00000
					CHANNELS 3 Zrotation Yrotation Xrotation
					JOINT LeftToe
					{
						OFFSET 0.05388 -0.14857 1.53863
						CHANNELS 3 Zrotation Yrotation Xrotation
						End Site
						{
							OFFSET 0.00000 -0.00000 0.79208
						}
					}
				}
			}
		}
	}
	JOINT RHipJoint
	{
		OFFSET 0 0 0
		CHANNELS 3 Zrotation Yrotation Xrotation
		JOINT RightHip
		{
			OFFSET -1.47839 -1.58235 0.71371
			CHANNELS 3 Zrotation Yrotation Xrotation
			JOINT RightKnee
			{
				OFFSET -2.26534 -6.22397 0.00000
				CHANNELS 3 Zrotation Yrotation Xrotation
				JOINT RightAnkle
				{
					OFFSET -2.27037 -6.23779 0.00000
					CHANNELS 3 Zrotation Yrotation Xrotation
					JOINT RightToe
					{
						OFFSET -0.09543 -0.26220 1.62615
						CHANNELS 3 Zrotation Yrotation Xrotation
						End Site
						{
							OFFSET -0.00000 -0.00000 0.83991
						}
					}
				}
			}
		}
	}
	JOINT lowerback
	{
		OFFSET 0 0 0
		CHANNELS 3 Zrotation Yrotation Xrotation
		JOINT Chest
		{
			OFFSET 0.00101 1.81877 -0.00412
			CHANNELS 3 Zrotation Yrotation Xrotation
			JOINT Chest2
			{
				OFFSET 0.00322 1.81934 -0.03962
				CHANNELS 3 Zrotation Yrotation Xrotation
				JOINT lowerneck
				{
					OFFSET 0 0 0
					CHANNELS 3 Zrotation Yrotation Xrotation
					JOINT Neck
					{
						OFFSET -0.13795 1.66192 0.22650
						CHANNELS 3 Zrotation Yrotation Xrotation
						JOINT Head
						{
							OFFSET 0.14844 1.65995 -0.39123
							CHANNELS 3 Zrotation Yrotation Xrotation
							End Site
							{
								OFFSET 0.04109 1.72502 -0.16783
							}
						}
					}
				}
				JOINT LeftCollar
				{
					OFFSET 0 0 0
					CHANNELS 3 Zrotation Yrotation Xrotation
					JOINT LeftShoulder
					{
						OFFSET 3.25446 1.41983 0.32106
CHANNELS 3 Zrotation Xrotation Yrotation
						JOINT LeftElbow
						{
OFFSET 0 -4.054440 -0.000000
CHANNELS 3 Zrotation Xrotation Yrotation
							JOINT LeftWrist
							{
OFFSET 0 -3.212050 0.000000
CHANNELS 3 Zrotation Xrotation Yrotation
								JOINT lhand
								{
									OFFSET 0 0 0
CHANNELS 3 Zrotation Xrotation Yrotation
									JOINT LFingers
									{
OFFSET 0 -0.707410 0.000000
CHANNELS 3 Zrotation Xrotation Yrotation
										End Site
										{
OFFSET 0 -0.570330 0.000000
										}
									}
								}
								JOINT LThumb
								{
OFFSET 0 0.000000 0.000000
CHANNELS 3 Zrotation Xrotation Yrotation
									End Site
									{
OFFSET 0 -0.579040 0.579040
									}
								}
							}
						}
					}
				}
				JOINT RightCollar
				{
					OFFSET 0 0 0
					CHANNELS 3 Zrotation Yrotation Xrotation
					JOINT RightShoulder
					{
						OFFSET -3.30007 1.25485 0.33947
CHANNELS 3 Zrotation Xrotation Yrotation
						JOINT RightElbow
						{
OFFSET 0 -3.740480 -0.000000
CHANNELS 3 Zrotation Xrotation Yrotation
							JOINT RightWrist
							{
OFFSET 0 -3.160300 0.000000
CHANNELS 3 Zrotation Xrotation Yrotation
								JOINT rhand
								{
									OFFSET 0 0 0
CHANNELS 3 Zrotation Xrotation Yrotation
									JOINT RFingers
									{
OFFSET 0 -0.717030 0.000000
CHANNELS 3 Zrotation Xrotation Yrotation
										End Site
										{
OFFSET 0 -0.578090 0.000000
										}
									}
								}
								JOINT RThumb
								{
OFFSET 0 0.000000 0.000000
CHANNELS 3 Zrotation Xrotation Yrotation
									End Site
									{
OFFSET 0 -0.586910 0.586910
									}
								}
							}
						}
					}
				}
			}
		}
	}
}
MOTION
Frames: 4
Frame Time: 0.008333333333333333
18.899300 16.446500 0.252700 80.475600 86.951200 88.862700 0.000000 0.000000 0.000000 -28.418700 -28.712600 14.170000 0.007600 0.561400 1.542600 -0.619300 -13.911400 7.216500 0.320200 3.637300 10.058300 0.000000 0.000000 0.000000 21.657000 14.730700 8.646400 -0.008600 0.597300 -1.641500 -0.645500 27.997400 -23.413200 -0.134900 -2.367700 6.523100 -2.294000 -0.702200 -8.404100 -0.570400 -0.667600 -0.096900 0.616300 -0.368000 4.635400 -15.377100 -16.773200 -11.784100 11.076900 -22.490000 17.633500 2.870800 -10.466600 10.594000 -0.000000 -0.000000 0.000000 5.742700 -4.100100 -6.826200 8.257300 -13.969100 1.013300 22.295600 -12.600400 13.959600 0.000000 0.000000 0.000000 -7.125000 0.000000 0.000000 -3.505200 14.961000 -2.486200 -0.000000 -0.000000 0.000000 -0.653500 2.703000 -0.902600 -10.157400 -16.985500 -1.520600 -41.867500 47.265200 -8.466100 0.000000 0.000000 0.000000 7.125000 0.000000 -0.000000 -10.579600 18.780700 -6.725600
18.897739 16.445884 0.253439 80.386810 86.935265 88.781056 0.000000 0.000000 0.000000 -27.784275 -26.247959 12.579132 0.006039 0.495198 1.360667 -0.553016 -13.357674 7.943165 0.192231 1.897476 5.251403 0.000000 0.000000 0.000000 21.653140 14.776450 8.659706 -0.008641 0.598655 -1.645155 -0.635233 28.067709 -23.400797 -0.133791 -2.357803 6.495666 -2.317943 -0.701461 -8.436380 -0.569702 -0.663082 -0.072423 0.630510 -0.366973 4.679302 -15.390283 -16.769791 -11.780732 11.133657 -22.490000 17.572226 2.892484 -10.463725 10.580653 0.000000 0.000000 0.000000 5.742823 -4.167863 -6.906776 8.257423 -13.969305 1.013341 22.319296 -12.697116 13.921160 0.000000 0.000000 0.000000 -7.125000 0.000000 0.000000 -3.487007 14.999440 -2.470389 0.000000 0.000000 0.000000 -0.699661 2.608255 -0.673808 -10.260810 -17.146324 -1.551155 -40.833438 45.913596 -9.025411 0.000000 0.000000 0.000000 7.125000 0.000000 0.000000 -9.778560 18.229849 -6.309248
18.896179 16.445268 0.254178 80.298020 86.919331 88.699412 0.000000 0.000000 0.000000 -27.149849 -23.783319 10.988263 0.004479 0.428995 1.178734 -0.486731 -12.803948 8.669830 0.064261 0.157653 0.444505 0.000000 0.000000 0.000000 21.649279 14.822201 8.673012 -0.008682 0.600011 -1.648810 -0.624966 28.138018 -23.388395 -0.132682 -2.347905 6.468233 -2.341886 -0.700722 -8.468660 -0.569004 -0.658565 -0.047946 0.644719 -0.365947 4.723204 -15.403466 -16.766383 -11.777365 11.190413 -22.490000 17.510952 2.914168 -10.460850 10.567306 0.000000 0.000000 0.000000 5.742946 -4.235626 -6.987353 8.257546 -13.969511 1.013382 22.342993 -12.793832 13.882720 0.000000 0.000000 0.000000 -7.125000 0.000000 0.000000 -3.468813 15.037880 -2.454577 0.000000 0.000000 0.000000 -0.745822 2.513510 -0.445015 -10.364221 -17.307148 -1.581710 -39.799375 44.561993 -9.584722 0.000000 0.000000 0.000000 7.125000 0.000000 0.000000 -8.977520 17.678998 -5.892896
18.894270 16.444930 0.254802 80.266362 86.920058 88.668355 0.000000 0.000000 0.000000 -26.616251 -21.305567 9.471559 0.003962 0.408299 1.121877 -0.386079 -11.981876 9.581836 0.166559 -1.691747 -4.695969 0.000000 0.000000 0.000000 21.652984 14.833027 8.675134 -0.008793 0.603802 -1.659195 -0.625721 28.144861 -23.396436 -0.133546 -2.355319 6.488718 -2.341950 -0.701212 -8.487480 -0.565707 -0.658642 -0.021265 0.647744 -0.366683 4.761700 -15.403051 -16.766664 -11.816254 11.212594 -22.488190 17.487874 2.919168 -10.456653 10.568670 0.000000 0.000000 0.000000 5.739310 -4.293712 -7.034908 8.262009 -13.976724 1.014467 22.360424 -12.868782 13.896144 0.000000 0.000000 0.000000 -7.125000 0.000000 0.000000 -3.457628 15.021648 -2.447816 0.000000 0.000000 0.000000 -0.789291 2.394678 -0.260220 -10.456005 -17.449570 -1.609086 -38.705443 43.323213 -10.099711 0.000000 0.000000 0.000000 7.125000 0.000000 0.000000 -8.148749 17.205745 -5.422569
